:FULLY-SPECIFIED
:FORCE-ALL-JOINTS-BE-3DOF
:DEGREES
291
root 10.0642 16.8795 3.83415 5.61741 1.56339 3.29008
lfemur -2.80645 4.84357 -29.2654
ltibia 17.9274 -0 0
lfoot -18.6333 4.15256 -0.00593839
ltoes -3.4246 0 0
rfemur -37.011 1.03491 15.0457
rtibia 41.8995 -0 0
rfoot -21.3 -11.3161 -0.00370832
rtoes -22.9922 0 0
lowerback -5.80987 -3.58513 -4.58276
upperback -0.155406 -4.546 2.1108
thorax 3.62576 -2.36071 4.33565
lowerneck -21.687 -3.91965 -11.5061
upperneck 22.963 -4.68484 11.2341
head 11.6507 -1.72641 5.38107
lclavicle 1.97625e-14 5.03588e-15 0
lhumerus -11.565 -21.6972 86.3689
lradius 27.2922 -0 0
lwrist 6.95407 0 0
lhand -15.8124 -23.7491 0.00192003
lfingers 7.12502 0 0
lthumb 10.3812 5.97452 0.00183507
rclavicle 1.97625e-14 5.03588e-15 0
rhumerus -47.6624 8.03599 -83.3315
rradius 40.5536 -0 0
rwrist -23.4324 0 0
rhand -30.905 -24.3424 0.00903696
rfingers 7.12502 0 0
rthumb -4.19134 -54.2807 0.00871648
292
root 10.0641 16.881 3.96923 5.7944 1.97127 3.32971
lfemur -1.80443 4.73233 -29.2003
ltibia 16.6022 -0 0
lfoot -18.3139 3.88628 -0.00668072
ltoes -2.9296 0 0
rfemur -37.4767 1.48157 14.609
rtibia 40.1103 -0 0
rfoot -21.4236 -10.8865 -0.00417188
rtoes -22.4886 0 0
lowerback -6.05749 -3.67636 -4.65142
upperback -0.152005 -4.6525 2.11077
thorax 3.78605 -2.41824 4.34702
lowerneck -21.7179 -4.00526 -11.5456
upperneck 22.9522 -4.81087 11.3111
head 11.6739 -1.77628 5.39673
lclavicle 2.17421e-14 5.56597e-15 0
lhumerus -11.1939 -22.8209 86.4483
lradius 27.8008 -0 0
lwrist 8.1503 0 0
lhand -15.7402 -23.368 0.00216004
lfingers 7.12502 0 0
lthumb 10.4509 6.35208 0.00206447
rclavicle 2.17421e-14 5.56597e-15 0
rhumerus -47.7628 7.98289 -83.3775
rradius 40.31 -0 0
rwrist -23.2908 0 0
rhand -30.9964 -25.7585 0.0101671
rfingers 7.12502 0 0
rthumb -4.27965 -55.6952 0.00980654
293
root 10.0641 16.8825 4.10432 5.97172 2.37903 3.3706
lfemur -0.802695 4.61997 -29.1372
ltibia 15.2769 -0 0
lfoot -17.9945 3.61999 -0.00593839
ltoes -2.43459 0 0
rfemur -37.9459 1.92465 14.1686
rtibia 38.321 -0 0
rfoot -21.5473 -10.4568 -0.00370832
rtoes -21.9849 0 0
lowerback -6.30502 -3.76787 -4.7197
upperback -0.148603 -4.759 2.11073
thorax 3.94632 -2.47581 4.35823
lowerneck -21.7487 -4.0909 -11.5851
upperneck 22.9412 -4.93688 11.3881
head 11.697 -1.82615 5.41238
lclavicle 2.37217e-14 6.09606e-15 0
lhumerus -10.8215 -23.945 86.5205
lradius 28.3094 -0 0
lwrist 9.34653 0 0
lhand -15.668 -22.987 0.00192003
lfingers 7.12502 0 0
lthumb 10.5205 6.72964 0.00183507
rclavicle 2.37217e-14 6.09606e-15 0
rhumerus -47.8632 7.92971 -83.4234
rradius 40.0663 -0 0
rwrist -23.1491 0 0
rhand -31.0878 -27.1747 0.00903696
rfingers 7.12502 0 0
rthumb -4.36796 -57.1096 0.00871648
294
root 10.0641 16.884 4.23941 6.14938 2.78666 3.41278
lfemur 0.198756 4.50652 -29.076
ltibia 13.9516 -0 0
lfoot -17.675 3.3537 -0.00371144
ltoes -1.93958 0 0
rfemur -38.4187 2.3641 13.7244
rtibia 36.5318 -0 0
rfoot -21.6709 -10.0271 -0.00231766
rtoes -21.4813 0 0
lowerback -6.55247 -3.85969 -4.78758
upperback -0.145201 -4.8655 2.11069
thorax 4.1066 -2.53341 4.36928
lowerneck -21.7795 -4.17655 -11.6245
upperneck 22.93 -5.06287 11.4652
head 11.7202 -1.87603 5.428
lclavicle 2.57012e-14 6.62616e-15 0
lhumerus -10.4472 -25.0696 86.5853
lradius 28.818 -0 0
lwrist 10.5428 0 0
lhand -15.5959 -22.6059 0.0012
lfingers 7.12502 0 0
lthumb 10.5901 7.10721 0.00114691
rclavicle 2.57012e-14 6.62616e-15 0
rhumerus -47.9635 7.87644 -83.4693
rradius 39.8226 -0 0
rwrist -23.0074 0 0
rhand -31.1792 -28.5909 0.00564723
rfingers 7.12502 0 0
rthumb -4.45621 -58.524 0.00544696
295
root 10.0641 16.8855 4.3745 6.32741 3.19415 3.45623
lfemur 1.19993 4.39203 -29.0169
ltibia 12.6263 0 0
lfoot -17.3556 3.08744 0
ltoes -1.44458 0 0
rfemur -38.895 2.79986 13.2765
rtibia 34.7426 0 0
rfoot -21.7945 -9.59742 0
rtoes -20.9777 0 0
lowerback -6.79984 -3.95179 -4.85507
upperback -0.141798 -4.972 2.11064
thorax 4.26687 -2.59104 4.38017
lowerneck -21.8102 -4.26223 -11.6639
upperneck 22.9186 -5.18885 11.5423
head 11.7433 -1.92592 5.4436
lclavicle 2.76808e-14 7.15625e-15 0
lhumerus -10.0708 -26.1945 86.6425
lradius 29.3266 0 0
lwrist 11.739 0 0
lhand -15.5237 -22.2248 0
lfingers 7.12502 0 0
lthumb 10.6597 7.48477 0
rclavicle 2.76808e-14 7.15625e-15 0
rhumerus -48.0638 7.8231 -83.515
rradius 39.5789 0 0
rwrist -22.8658 0 0
rhand -31.2705 -30.0071 0
rfingers 7.12502 0 0
rthumb -4.54436 -59.9384 0
296
root 10.0608 16.883 4.52125 6.40837 3.61683 3.55953
lfemur 2.78457 4.19389 -28.9652
ltibia 10.5219 -0 0
lfoot -16.7062 3.02038 -0.00190075
ltoes -1.74318 0 0
rfemur -39.1961 4.11524 12.1946
rtibia 33.5277 -0 0
rfoot -22.4001 -10.0852 0.0128941
rtoes -20.0949 0 0
lowerback -6.9076 -4.05873 -5.00355
upperback -0.197491 -5.09791 2.09916
thorax 4.29705 -2.65553 4.42946
lowerneck -21.5235 -4.29647 -11.7479
upperneck 22.8512 -5.24035 11.56
head 11.6724 -1.96241 5.45267
lclavicle 1.95141e-14 7.15625e-15 0
lhumerus -10.1126 -27.1665 86.8539
lradius 30.0322 -0 0
lwrist 12.7745 0 0
lhand -15.3241 -21.8957 0.00286639
lfingers 7.12502 0 0
lthumb 10.8522 7.80342 0.00267653
rclavicle 1.95141e-14 7.15625e-15 0
rhumerus -48.1697 7.59557 -83.4542
rradius 39.0994 -0 0
rwrist -22.4155 0 0
rhand -31.2446 -29.5539 0.000511902
rfingers 7.12502 0 0
rthumb -4.51936 -59.4857 0.000493916
297
root 10.0575 16.8806 4.668 6.49013 4.03936 3.66349
lfemur 4.36864 3.99441 -28.9191
ltibia 8.41753 -0 0
lfoot -16.0567 2.95331 -0.0030413
ltoes -2.04177 0 0
rfemur -39.5226 5.4247 11.1038
rtibia 32.3128 -0 0
rfoot -23.0058 -10.573 0.0206315
rtoes -19.2121 0 0
lowerback -7.01509 -4.16595 -5.15185
upperback -0.253169 -5.22384 2.08779
thorax 4.32717 -2.72004 4.47873
lowerneck -21.2368 -4.3303 -11.832
upperneck 22.7837 -5.29182 11.5778
head 11.6014 -1.99889 5.46179
lclavicle 1.13473e-14 7.15625e-15 0
lhumerus -10.1588 -28.1384 87.068
lradius 30.7378 -0 0
lwrist 13.8101 0 0
lhand -15.1245 -21.5666 0.00458628
lfingers 7.12502 0 0
lthumb 11.0447 8.12207 0.00428249
rclavicle 1.13473e-14 7.15625e-15 0
rhumerus -48.2758 7.36815 -83.393
rradius 38.62 -0 0
rwrist -21.9653 0 0
rhand -31.2187 -29.1006 0.000819056
rfingers 7.12502 0 0
rthumb -4.49436 -59.033 0.000790278
298
root 10.0542 16.8781 4.81475 6.5727 4.46174 3.7681
lfemur 5.95217 3.79373 -28.8785
ltibia 6.31315 -0 0
lfoot -15.4072 2.88622 -0.0034215
ltoes -2.34037 0 0
rfemur -39.875 6.72768 10.0028
rtibia 31.0979 -0 0
rfoot -23.6116 -11.061 0.0232108
rtoes -18.3294 0 0
lowerback -7.12232 -4.27344 -5.29997
upperback -0.308834 -5.34978 2.07655
thorax 4.35724 -2.78458 4.52796
lowerneck -20.95 -4.3637 -11.9164
upperneck 22.7162 -5.34328 11.5956
head 11.5305 -2.03535 5.47096
lclavicle 3.18055e-15 7.15625e-15 0
lhumerus -10.2096 -29.1101 87.2849
lradius 31.4435 -0 0
lwrist 14.8456 0 0
lhand -14.9249 -21.2374 0.00515959
lfingers 7.12502 0 0
lthumb 11.2372 8.44073 0.00481782
rclavicle 3.18055e-15 7.15625e-15 0
rhumerus -48.3821 7.14084 -83.3314
rradius 38.1405 -0 0
rwrist -21.515 0 0
rhand -31.1929 -28.6474 0.000921443
rfingers 7.12502 0 0
rthumb -4.46935 -58.5802 0.000889067
